<svg height="510" width="720" xmlns="http://www.w3.org/2000/svg">
<rect height="510" fill="#555" width="720"></rect>
<text fill="#7f7" font-family="Courier New" font-size="12" xml:space="preserve">
<tspan x="10" y="26">15 megabytes installed</tspan>
<tspan x="10" y="42"></tspan>
<tspan x="10" y="58">node_modules</tspan>
<tspan x="10" y="74">└─┬ mongolass@2.4.5 </tspan>
<tspan x="10" y="90">  ├─┬ another-json-schema@2.1.0 </tspan>
<tspan x="10" y="106">  │ └── is-buffer@1.1.5 </tspan>
<tspan x="10" y="122">  ├── bluebird@3.5.0 </tspan>
<tspan x="10" y="138">  ├── co@4.6.0 </tspan>
<tspan x="10" y="154">  ├─┬ debug@2.6.3 </tspan>
<tspan x="10" y="170">  │ └── ms@0.7.2 </tspan>
<tspan x="10" y="186">  ├── inflected@1.1.7 </tspan>
<tspan x="10" y="202">  ├── lodash@4.17.4 </tspan>
<tspan x="10" y="218">  ├─┬ mongodb@2.2.25 </tspan>
<tspan x="10" y="234">  │ ├── es6-promise@3.2.1 </tspan>
<tspan x="10" y="250">  │ ├─┬ mongodb-core@2.1.9 </tspan>
<tspan x="10" y="266">  │ │ ├── bson@1.0.4 </tspan>
<tspan x="10" y="282">  │ │ └─┬ require_optional@1.0.0 </tspan>
<tspan x="10" y="298">  │ │   ├── resolve-from@2.0.0 </tspan>
<tspan x="10" y="314">  │ │   └── semver@5.3.0 </tspan>
<tspan x="10" y="330">  │ └─┬ readable-stream@2.1.5 </tspan>
<tspan x="10" y="346">  │   ├── buffer-shims@1.0.0 </tspan>
<tspan x="10" y="362">  │   ├── core-util-is@1.0.2 </tspan>
<tspan x="10" y="378">  │   ├── inherits@2.0.3 </tspan>
<tspan x="10" y="394">  │   ├── isarray@1.0.0 </tspan>
<tspan x="10" y="410">  │   ├── process-nextick-args@1.0.7 </tspan>
<tspan x="10" y="426">  │   ├── string_decoder@0.10.31 </tspan>
<tspan x="10" y="442">  │   └── util-deprecate@1.0.2 </tspan>
<tspan x="10" y="458">  ├─┬ mongolass-plugin-populate@0.2.1 </tspan>
<tspan x="10" y="474">  │ └── lodash@4.15.0 </tspan>
<tspan x="10" y="490">  └── validator@7.0.0</tspan>
</text>
</svg>
